<svg width="68" height="12" viewBox="0 0 68 12" fill="none" xmlns="http://www.w3.org/2000/svg">
<path fill-rule="evenodd" clip-rule="evenodd" d="M4.10511 3.68159C4.10511 3.68159 1.83465 3.93307 0.320057 4.10119C0.183543 4.11772 0.0628346 4.20897 0.0175692 4.34764C-0.0276963 4.48631 0.0175691 4.63073 0.118159 4.72198C1.24333 5.74871 2.93396 7.2863 2.93396 7.2863C2.93396 7.2863 2.46981 9.52299 2.16229 11.0153C2.13642 11.1504 2.18528 11.2934 2.30312 11.3789C2.42023 11.4644 2.57112 11.4658 2.68967 11.399C4.01458 10.646 5.99908 9.51365 5.99908 9.51365C5.99908 9.51365 7.98429 10.646 9.30705 11.3997C9.42776 11.4658 9.57864 11.4644 9.69576 11.3789C9.81359 11.2934 9.86245 11.1504 9.83586 11.016C9.52834 9.52299 9.06635 7.2863 9.06635 7.2863C9.06635 7.2863 10.757 5.74871 11.8821 4.72413C11.9827 4.63001 12.0273 4.48559 11.9827 4.34764C11.9382 4.20969 11.8175 4.11844 11.681 4.10263C10.1664 3.93307 7.8952 3.68159 7.8952 3.68159C7.8952 3.68159 6.95396 1.59938 6.32671 0.211239C6.26779 0.0869385 6.14421 0 5.99908 0C5.85394 0 5.72964 0.087657 5.6736 0.211239C5.04563 1.59938 4.10511 3.68159 4.10511 3.68159Z" fill="#F3E20E"/>
<path fill-rule="evenodd" clip-rule="evenodd" d="M18.1051 3.68159C18.1051 3.68159 15.8347 3.93307 14.3201 4.10119C14.1835 4.11772 14.0628 4.20897 14.0176 4.34764C13.9723 4.48631 14.0176 4.63073 14.1182 4.72198C15.2433 5.74871 16.934 7.2863 16.934 7.2863C16.934 7.2863 16.4698 9.52299 16.1623 11.0153C16.1364 11.1504 16.1853 11.2934 16.3031 11.3789C16.4202 11.4644 16.5711 11.4658 16.6897 11.399C18.0146 10.646 19.9991 9.51365 19.9991 9.51365C19.9991 9.51365 21.9843 10.646 23.307 11.3997C23.4278 11.4658 23.5786 11.4644 23.6958 11.3789C23.8136 11.2934 23.8624 11.1504 23.8359 11.016C23.5283 9.52299 23.0663 7.2863 23.0663 7.2863C23.0663 7.2863 24.757 5.74871 25.8821 4.72413C25.9827 4.63001 26.0273 4.48559 25.9827 4.34764C25.9382 4.20969 25.8175 4.11844 25.681 4.10263C24.1664 3.93307 21.8952 3.68159 21.8952 3.68159C21.8952 3.68159 20.954 1.59938 20.3267 0.211239C20.2678 0.0869385 20.1442 0 19.9991 0C19.8539 0 19.7296 0.087657 19.6736 0.211239C19.0456 1.59938 18.1051 3.68159 18.1051 3.68159Z" fill="#F3E20E"/>
<path fill-rule="evenodd" clip-rule="evenodd" d="M32.1051 3.68159C32.1051 3.68159 29.8347 3.93307 28.3201 4.10119C28.1835 4.11772 28.0628 4.20897 28.0176 4.34764C27.9723 4.48631 28.0176 4.63073 28.1182 4.72198C29.2433 5.74871 30.934 7.2863 30.934 7.2863C30.934 7.2863 30.4698 9.52299 30.1623 11.0153C30.1364 11.1504 30.1853 11.2934 30.3031 11.3789C30.4202 11.4644 30.5711 11.4658 30.6897 11.399C32.0146 10.646 33.9991 9.51365 33.9991 9.51365C33.9991 9.51365 35.9843 10.646 37.307 11.3997C37.4278 11.4658 37.5786 11.4644 37.6958 11.3789C37.8136 11.2934 37.8624 11.1504 37.8359 11.016C37.5283 9.52299 37.0663 7.2863 37.0663 7.2863C37.0663 7.2863 38.757 5.74871 39.8821 4.72413C39.9827 4.63001 40.0273 4.48559 39.9827 4.34764C39.9382 4.20969 39.8175 4.11844 39.681 4.10263C38.1664 3.93307 35.8952 3.68159 35.8952 3.68159C35.8952 3.68159 34.954 1.59938 34.3267 0.211239C34.2678 0.0869385 34.1442 0 33.9991 0C33.8539 0 33.7296 0.087657 33.6736 0.211239C33.0456 1.59938 32.1051 3.68159 32.1051 3.68159Z" fill="#F3E20E"/>
<path fill-rule="evenodd" clip-rule="evenodd" d="M46.1051 3.68159C46.1051 3.68159 43.8347 3.93307 42.3201 4.10119C42.1835 4.11772 42.0628 4.20897 42.0176 4.34764C41.9723 4.48631 42.0176 4.63073 42.1182 4.72198C43.2433 5.74871 44.934 7.2863 44.934 7.2863C44.934 7.2863 44.4698 9.52299 44.1623 11.0153C44.1364 11.1504 44.1853 11.2934 44.3031 11.3789C44.4202 11.4644 44.5711 11.4658 44.6897 11.399C46.0146 10.646 47.9991 9.51365 47.9991 9.51365C47.9991 9.51365 49.9843 10.646 51.307 11.3997C51.4278 11.4658 51.5786 11.4644 51.6958 11.3789C51.8136 11.2934 51.8624 11.1504 51.8359 11.016C51.5283 9.52299 51.0663 7.2863 51.0663 7.2863C51.0663 7.2863 52.757 5.74871 53.8821 4.72413C53.9827 4.63001 54.0273 4.48559 53.9827 4.34764C53.9382 4.20969 53.8175 4.11844 53.681 4.10263C52.1664 3.93307 49.8952 3.68159 49.8952 3.68159C49.8952 3.68159 48.954 1.59938 48.3267 0.211239C48.2678 0.0869385 48.1442 0 47.9991 0C47.8539 0 47.7296 0.087657 47.6736 0.211239C47.0456 1.59938 46.1051 3.68159 46.1051 3.68159Z" fill="#F3E20E"/>
<path fill-rule="evenodd" clip-rule="evenodd" d="M60.1051 3.68159C60.1051 3.68159 57.8347 3.93307 56.3201 4.10119C56.1835 4.11772 56.0628 4.20897 56.0176 4.34764C55.9723 4.48631 56.0176 4.63073 56.1182 4.72198C57.2433 5.74871 58.934 7.2863 58.934 7.2863C58.934 7.2863 58.4698 9.52299 58.1623 11.0153C58.1364 11.1504 58.1853 11.2934 58.3031 11.3789C58.4202 11.4644 58.5711 11.4658 58.6897 11.399C60.0146 10.646 61.9991 9.51365 61.9991 9.51365C61.9991 9.51365 63.9843 10.646 65.307 11.3997C65.4278 11.4658 65.5786 11.4644 65.6958 11.3789C65.8136 11.2934 65.8624 11.1504 65.8359 11.016C65.5283 9.52299 65.0663 7.2863 65.0663 7.2863C65.0663 7.2863 66.757 5.74871 67.8821 4.72413C67.9827 4.63001 68.0273 4.48559 67.9827 4.34764C67.9382 4.20969 67.8175 4.11844 67.681 4.10263C66.1664 3.93307 63.8952 3.68159 63.8952 3.68159C63.8952 3.68159 62.954 1.59938 62.3267 0.211239C62.2678 0.0869385 62.1442 0 61.9991 0C61.8539 0 61.7296 0.087657 61.6736 0.211239C61.0456 1.59938 60.1051 3.68159 60.1051 3.68159Z" fill="#F3E20E"/>
</svg>
