<svg width="37" height="56" viewBox="0 0 37 56" fill="none" xmlns="http://www.w3.org/2000/svg">
<path d="M24 42.8572V40.0714C24 36.7054 27.614 33.5215 29.9583 31.25C33.2629 28.0499 35 23.7507 35 18.7143C35 9.42863 27.6976 2.00006 18.5 2.00006C16.3315 1.99394 14.1832 2.42208 12.1786 3.25988C10.174 4.09768 8.35267 5.32861 6.81931 6.8819C5.28594 8.43518 4.07079 10.2802 3.24373 12.3108C2.41667 14.3414 1.99402 16.5177 2.00006 18.7143C2.00006 23.5708 3.81162 28.1614 7.04172 31.25C9.37349 33.4798 13 36.6706 13 40.0714V42.8572M14.8334 54H22.1667M13 48.4286H24M18.5 42.8572V28M18.5 28C20.3895 28 22.8542 26.1429 22.8542 26.1429M18.5 28C16.6106 28 14.1459 26.1429 14.1459 26.1429" stroke="white" stroke-width="4" stroke-linecap="round" stroke-linejoin="round"/>
</svg>
