<svg width="259" height="74" viewBox="0 0 259 74" fill="none" xmlns="http://www.w3.org/2000/svg">
<g filter="url(#filter0_d_3_26)">
<path d="M48.0266 7.13851C47.4092 9.47354 46.0423 11.5379 44.1387 13.0105C42.235 14.4831 39.9011 15.2814 37.5 15.2814C35.0989 15.2814 32.765 14.4831 30.8613 13.0105C28.9577 11.5379 27.5908 9.47354 26.9734 7.13851M45.4736 6.5C45.4736 6.5 42.3718 7.59615 37.5 7.59615C32.6282 7.59615 29.5264 6.5 29.5264 6.5C29.0363 6.50001 28.5497 6.5834 28.0872 6.74663L7 14.1731L9.26435 26.2308L15.9199 26.9871C16.7349 27.0799 17.4855 27.4778 18.0225 28.1017C18.5596 28.7257 18.8438 29.53 18.8188 30.355L17.8929 63.5H57.1071L56.1813 30.355C56.1562 29.53 56.4404 28.7257 56.9775 28.1017C57.5145 27.4778 58.2651 27.0799 59.0801 26.9871L65.7356 26.2308L68 14.1731L46.9128 6.74663C46.4503 6.5834 45.9637 6.50001 45.4736 6.5Z" stroke="#061826" stroke-width="5" stroke-linecap="round" stroke-linejoin="round"/>
</g>
<path d="M85.5645 11.4785H94.3008C96.5625 11.4785 98.3145 12.0879 99.5566 13.3066C100.799 14.5137 101.42 16.2305 101.42 18.457C101.42 19.6172 101.215 20.7832 100.805 21.9551C100.395 23.1152 99.5273 24.1289 98.2031 24.9961C96.8906 25.8516 95.2383 26.2793 93.2461 26.2793H91.3125V36H85.5645V11.4785ZM91.3125 16.207V21.4629H92.5781C93.5156 21.4629 94.2598 21.2227 94.8105 20.7422C95.373 20.25 95.6543 19.5645 95.6543 18.6855C95.6543 17.8535 95.4375 17.2324 95.0039 16.8223C94.582 16.4121 93.9434 16.207 93.0879 16.207H91.3125ZM111.475 11.0742C114.439 11.0742 116.777 12.1934 118.488 14.4316C120.199 16.6699 121.055 19.7285 121.055 23.6074C121.055 27.498 120.193 30.6035 118.471 32.9238C116.748 35.2324 114.516 36.3867 111.773 36.3867C108.926 36.3867 106.723 35.1855 105.164 32.7832C103.605 30.3809 102.826 27.3867 102.826 23.8008C102.826 21.3164 103.207 19.0898 103.969 17.1211C104.73 15.1406 105.797 13.6406 107.168 12.6211C108.539 11.5898 109.975 11.0742 111.475 11.0742ZM112.09 16.2422C110.941 16.2422 110.062 16.9043 109.453 18.2285C108.844 19.5527 108.539 21.3633 108.539 23.6602C108.539 25.9922 108.832 27.8262 109.418 29.1621C110.016 30.4863 110.836 31.1484 111.879 31.1484C112.91 31.1484 113.736 30.4629 114.357 29.0918C114.979 27.7207 115.289 25.8926 115.289 23.6074C115.289 21.2402 114.973 19.4238 114.34 18.1582C113.719 16.8809 112.969 16.2422 112.09 16.2422ZM123.463 11.4785H132.199C134.461 11.4785 136.213 12.0879 137.455 13.3066C138.697 14.5137 139.318 16.2305 139.318 18.457C139.318 19.6172 139.113 20.7832 138.703 21.9551C138.293 23.1152 137.426 24.1289 136.102 24.9961C134.789 25.8516 133.137 26.2793 131.145 26.2793H129.211V36H123.463V11.4785ZM129.211 16.207V21.4629H130.477C131.414 21.4629 132.158 21.2227 132.709 20.7422C133.271 20.25 133.553 19.5645 133.553 18.6855C133.553 17.8535 133.336 17.2324 132.902 16.8223C132.48 16.4121 131.842 16.207 130.986 16.207H129.211ZM141.463 11.4785H150.199C152.461 11.4785 154.213 12.0879 155.455 13.3066C156.697 14.5137 157.318 16.2305 157.318 18.457C157.318 19.6172 157.113 20.7832 156.703 21.9551C156.293 23.1152 155.426 24.1289 154.102 24.9961C152.789 25.8516 151.137 26.2793 149.145 26.2793H147.211V36H141.463V11.4785ZM147.211 16.207V21.4629H148.477C149.414 21.4629 150.158 21.2227 150.709 20.7422C151.271 20.25 151.553 19.5645 151.553 18.6855C151.553 17.8535 151.336 17.2324 150.902 16.8223C150.48 16.4121 149.842 16.207 148.986 16.207H147.211ZM159.674 11.4785H165.404V30.9902H173.279V36H159.674V11.4785ZM174.721 11.4785H180.486V36H174.721V11.4785ZM183.949 11.4785H189.768L192.562 19.248C193.395 21.5566 194.033 23.5547 194.479 25.2422H194.777L194.637 21.0938V11.4785H200.121V36H194.32L191.525 28.2305C190.693 25.9219 190.055 23.918 189.609 22.2188H189.293L189.434 26.3672V36H183.949V11.4785ZM214.166 34.1543C213.604 34.8926 213 35.4492 212.355 35.8242C211.711 36.1992 211.025 36.3867 210.299 36.3867C208.916 36.3867 207.615 35.8477 206.396 34.7695C205.189 33.6797 204.299 32.1328 203.725 30.1289C203.15 28.1133 202.863 25.9922 202.863 23.7656C202.863 19.9805 203.701 16.9219 205.377 14.5898C207.064 12.2461 209.338 11.0742 212.197 11.0742C214.107 11.0742 215.83 11.5547 217.365 12.5156V17.9473C215.912 16.7402 214.57 16.1367 213.34 16.1367C211.746 16.1367 210.557 16.8457 209.771 18.2637C208.986 19.6816 208.594 21.6152 208.594 24.0645C208.594 26.3379 208.857 28.1484 209.385 29.4961C209.924 30.832 210.65 31.5 211.564 31.5C212.033 31.5 212.379 31.2715 212.602 30.8145C212.836 30.3574 212.953 29.6719 212.953 28.7578V27.2285H211.072V22.7988H218.279V36H215.502L214.166 34.1543Z" fill="#061826"/>
<path d="M87.1836 51.4648V64.0625H85.3672V49.4336H87.0273L87.1836 51.4648ZM94.3027 54.6289V54.834C94.3027 55.6022 94.2116 56.3151 94.0293 56.9727C93.847 57.6237 93.5801 58.1901 93.2285 58.6719C92.8835 59.1536 92.457 59.528 91.9492 59.7949C91.4414 60.0618 90.8587 60.1953 90.2012 60.1953C89.5306 60.1953 88.9382 60.0846 88.4238 59.8633C87.9095 59.6419 87.4733 59.3197 87.1152 58.8965C86.7572 58.4733 86.4707 57.9655 86.2559 57.373C86.0475 56.7806 85.9043 56.1133 85.8262 55.3711V54.2773C85.9043 53.4961 86.0508 52.7962 86.2656 52.1777C86.4805 51.5592 86.7637 51.0319 87.1152 50.5957C87.4733 50.153 87.9062 49.8177 88.4141 49.5898C88.9219 49.3555 89.5078 49.2383 90.1719 49.2383C90.8359 49.2383 91.4251 49.3685 91.9395 49.6289C92.4538 49.8828 92.8867 50.2474 93.2383 50.7227C93.5898 51.1979 93.8535 51.7676 94.0293 52.4316C94.2116 53.0892 94.3027 53.8216 94.3027 54.6289ZM92.4863 54.834V54.6289C92.4863 54.1016 92.431 53.6068 92.3203 53.1445C92.2096 52.6758 92.0371 52.2656 91.8027 51.9141C91.5749 51.556 91.2819 51.276 90.9238 51.0742C90.5658 50.8659 90.1393 50.7617 89.6445 50.7617C89.1888 50.7617 88.7917 50.8398 88.4531 50.9961C88.1211 51.1523 87.8379 51.3639 87.6035 51.6309C87.3691 51.8913 87.1771 52.1908 87.0273 52.5293C86.8841 52.8613 86.7767 53.2064 86.7051 53.5645V56.0938C86.8353 56.5495 87.0176 56.9792 87.252 57.3828C87.4863 57.7799 87.7988 58.1022 88.1895 58.3496C88.5801 58.5905 89.0716 58.7109 89.6641 58.7109C90.1523 58.7109 90.5723 58.61 90.9238 58.4082C91.2819 58.1999 91.5749 57.9167 91.8027 57.5586C92.0371 57.2005 92.2096 56.7904 92.3203 56.3281C92.431 55.8594 92.4863 55.3613 92.4863 54.834ZM96.1289 54.834V54.6094C96.1289 53.8477 96.2396 53.1413 96.4609 52.4902C96.6823 51.8327 97.0013 51.263 97.418 50.7812C97.8346 50.293 98.3392 49.9154 98.9316 49.6484C99.5241 49.375 100.188 49.2383 100.924 49.2383C101.666 49.2383 102.333 49.375 102.926 49.6484C103.525 49.9154 104.033 50.293 104.449 50.7812C104.872 51.263 105.195 51.8327 105.416 52.4902C105.637 53.1413 105.748 53.8477 105.748 54.6094V54.834C105.748 55.5957 105.637 56.3021 105.416 56.9531C105.195 57.6042 104.872 58.1738 104.449 58.6621C104.033 59.1439 103.528 59.5215 102.936 59.7949C102.35 60.0618 101.686 60.1953 100.943 60.1953C100.201 60.1953 99.5339 60.0618 98.9414 59.7949C98.349 59.5215 97.8411 59.1439 97.418 58.6621C97.0013 58.1738 96.6823 57.6042 96.4609 56.9531C96.2396 56.3021 96.1289 55.5957 96.1289 54.834ZM97.9355 54.6094V54.834C97.9355 55.3613 97.9974 55.8594 98.1211 56.3281C98.2448 56.7904 98.4303 57.2005 98.6777 57.5586C98.9316 57.9167 99.2474 58.1999 99.625 58.4082C100.003 58.61 100.442 58.7109 100.943 58.7109C101.438 58.7109 101.871 58.61 102.242 58.4082C102.62 58.1999 102.932 57.9167 103.18 57.5586C103.427 57.2005 103.613 56.7904 103.736 56.3281C103.867 55.8594 103.932 55.3613 103.932 54.834V54.6094C103.932 54.0885 103.867 53.597 103.736 53.1348C103.613 52.666 103.424 52.2526 103.17 51.8945C102.923 51.5299 102.61 51.2435 102.232 51.0352C101.861 50.8268 101.425 50.7227 100.924 50.7227C100.429 50.7227 99.9928 50.8268 99.6152 51.0352C99.2441 51.2435 98.9316 51.5299 98.6777 51.8945C98.4303 52.2526 98.2448 52.666 98.1211 53.1348C97.9974 53.597 97.9355 54.0885 97.9355 54.6094ZM109.82 51.4648V64.0625H108.004V49.4336H109.664L109.82 51.4648ZM116.939 54.6289V54.834C116.939 55.6022 116.848 56.3151 116.666 56.9727C116.484 57.6237 116.217 58.1901 115.865 58.6719C115.52 59.1536 115.094 59.528 114.586 59.7949C114.078 60.0618 113.495 60.1953 112.838 60.1953C112.167 60.1953 111.575 60.0846 111.061 59.8633C110.546 59.6419 110.11 59.3197 109.752 58.8965C109.394 58.4733 109.107 57.9655 108.893 57.373C108.684 56.7806 108.541 56.1133 108.463 55.3711V54.2773C108.541 53.4961 108.688 52.7962 108.902 52.1777C109.117 51.5592 109.4 51.0319 109.752 50.5957C110.11 50.153 110.543 49.8177 111.051 49.5898C111.559 49.3555 112.145 49.2383 112.809 49.2383C113.473 49.2383 114.062 49.3685 114.576 49.6289C115.09 49.8828 115.523 50.2474 115.875 50.7227C116.227 51.1979 116.49 51.7676 116.666 52.4316C116.848 53.0892 116.939 53.8216 116.939 54.6289ZM115.123 54.834V54.6289C115.123 54.1016 115.068 53.6068 114.957 53.1445C114.846 52.6758 114.674 52.2656 114.439 51.9141C114.212 51.556 113.919 51.276 113.561 51.0742C113.202 50.8659 112.776 50.7617 112.281 50.7617C111.826 50.7617 111.428 50.8398 111.09 50.9961C110.758 51.1523 110.475 51.3639 110.24 51.6309C110.006 51.8913 109.814 52.1908 109.664 52.5293C109.521 52.8613 109.413 53.2064 109.342 53.5645V56.0938C109.472 56.5495 109.654 56.9792 109.889 57.3828C110.123 57.7799 110.436 58.1022 110.826 58.3496C111.217 58.5905 111.708 58.7109 112.301 58.7109C112.789 58.7109 113.209 58.61 113.561 58.4082C113.919 58.1999 114.212 57.9167 114.439 57.5586C114.674 57.2005 114.846 56.7904 114.957 56.3281C115.068 55.8594 115.123 55.3613 115.123 54.834ZM126.168 49.4336V60H124.352V49.4336H126.168ZM124.215 46.6309C124.215 46.3379 124.303 46.0905 124.479 45.8887C124.661 45.6868 124.928 45.5859 125.279 45.5859C125.624 45.5859 125.888 45.6868 126.07 45.8887C126.259 46.0905 126.354 46.3379 126.354 46.6309C126.354 46.9108 126.259 47.1517 126.07 47.3535C125.888 47.5488 125.624 47.6465 125.279 47.6465C124.928 47.6465 124.661 47.5488 124.479 47.3535C124.303 47.1517 124.215 46.9108 124.215 46.6309ZM130.875 51.6895V60H129.068V49.4336H130.777L130.875 51.6895ZM130.445 54.3164L129.693 54.2871C129.7 53.5645 129.807 52.8971 130.016 52.2852C130.224 51.6667 130.517 51.1296 130.895 50.6738C131.272 50.2181 131.721 49.8665 132.242 49.6191C132.77 49.3652 133.352 49.2383 133.99 49.2383C134.511 49.2383 134.98 49.3099 135.396 49.4531C135.813 49.5898 136.168 49.8112 136.461 50.1172C136.76 50.4232 136.988 50.8203 137.145 51.3086C137.301 51.7904 137.379 52.3796 137.379 53.0762V60H135.562V53.0566C135.562 52.5033 135.481 52.0605 135.318 51.7285C135.156 51.39 134.918 51.1458 134.605 50.9961C134.293 50.8398 133.909 50.7617 133.453 50.7617C133.004 50.7617 132.594 50.8561 132.223 51.0449C131.858 51.2337 131.542 51.4941 131.275 51.8262C131.015 52.1582 130.81 52.5391 130.66 52.9688C130.517 53.3919 130.445 53.8411 130.445 54.3164ZM148.053 58.9062L150.992 49.4336H152.926L148.688 61.6309C148.59 61.8913 148.46 62.1712 148.297 62.4707C148.141 62.7767 147.939 63.0664 147.691 63.3398C147.444 63.6133 147.145 63.8346 146.793 64.0039C146.448 64.1797 146.035 64.2676 145.553 64.2676C145.41 64.2676 145.227 64.248 145.006 64.209C144.785 64.1699 144.628 64.1374 144.537 64.1113L144.527 62.6465C144.579 62.653 144.661 62.6595 144.771 62.666C144.889 62.679 144.97 62.6855 145.016 62.6855C145.426 62.6855 145.774 62.6302 146.061 62.5195C146.347 62.4154 146.588 62.2363 146.783 61.9824C146.985 61.735 147.158 61.3932 147.301 60.957L148.053 58.9062ZM145.895 49.4336L148.639 57.6367L149.107 59.541L147.809 60.2051L143.922 49.4336H145.895ZM153.922 54.834V54.6094C153.922 53.8477 154.033 53.1413 154.254 52.4902C154.475 51.8327 154.794 51.263 155.211 50.7812C155.628 50.293 156.132 49.9154 156.725 49.6484C157.317 49.375 157.981 49.2383 158.717 49.2383C159.459 49.2383 160.126 49.375 160.719 49.6484C161.318 49.9154 161.826 50.293 162.242 50.7812C162.665 51.263 162.988 51.8327 163.209 52.4902C163.43 53.1413 163.541 53.8477 163.541 54.6094V54.834C163.541 55.5957 163.43 56.3021 163.209 56.9531C162.988 57.6042 162.665 58.1738 162.242 58.6621C161.826 59.1439 161.321 59.5215 160.729 59.7949C160.143 60.0618 159.479 60.1953 158.736 60.1953C157.994 60.1953 157.327 60.0618 156.734 59.7949C156.142 59.5215 155.634 59.1439 155.211 58.6621C154.794 58.1738 154.475 57.6042 154.254 56.9531C154.033 56.3021 153.922 55.5957 153.922 54.834ZM155.729 54.6094V54.834C155.729 55.3613 155.79 55.8594 155.914 56.3281C156.038 56.7904 156.223 57.2005 156.471 57.5586C156.725 57.9167 157.04 58.1999 157.418 58.4082C157.796 58.61 158.235 58.7109 158.736 58.7109C159.231 58.7109 159.664 58.61 160.035 58.4082C160.413 58.1999 160.725 57.9167 160.973 57.5586C161.22 57.2005 161.406 56.7904 161.529 56.3281C161.66 55.8594 161.725 55.3613 161.725 54.834V54.6094C161.725 54.0885 161.66 53.597 161.529 53.1348C161.406 52.666 161.217 52.2526 160.963 51.8945C160.715 51.5299 160.403 51.2435 160.025 51.0352C159.654 50.8268 159.218 50.7227 158.717 50.7227C158.222 50.7227 157.786 50.8268 157.408 51.0352C157.037 51.2435 156.725 51.5299 156.471 51.8945C156.223 52.2526 156.038 52.666 155.914 53.1348C155.79 53.597 155.729 54.0885 155.729 54.6094ZM172.271 57.5586V49.4336H174.088V60H172.359L172.271 57.5586ZM172.613 55.332L173.365 55.3125C173.365 56.0156 173.29 56.6667 173.141 57.2656C172.997 57.8581 172.763 58.3724 172.438 58.8086C172.112 59.2448 171.686 59.5866 171.158 59.834C170.631 60.0749 169.99 60.1953 169.234 60.1953C168.72 60.1953 168.248 60.1204 167.818 59.9707C167.395 59.821 167.031 59.5898 166.725 59.2773C166.419 58.9648 166.181 58.5579 166.012 58.0566C165.849 57.5553 165.768 56.9531 165.768 56.25V49.4336H167.574V56.2695C167.574 56.7448 167.626 57.1387 167.73 57.4512C167.841 57.7572 167.988 58.0013 168.17 58.1836C168.359 58.3594 168.567 58.4831 168.795 58.5547C169.029 58.6263 169.27 58.6621 169.518 58.6621C170.286 58.6621 170.895 58.5156 171.344 58.2227C171.793 57.9232 172.115 57.5228 172.311 57.0215C172.512 56.5137 172.613 55.9505 172.613 55.332ZM178.648 51.0938V60H176.842V49.4336H178.6L178.648 51.0938ZM181.949 49.375L181.939 51.0547C181.79 51.0221 181.646 51.0026 181.51 50.9961C181.38 50.9831 181.23 50.9766 181.061 50.9766C180.644 50.9766 180.276 51.0417 179.957 51.1719C179.638 51.3021 179.368 51.4844 179.146 51.7188C178.925 51.9531 178.749 52.2331 178.619 52.5586C178.495 52.8776 178.414 53.2292 178.375 53.6133L177.867 53.9062C177.867 53.2682 177.929 52.6693 178.053 52.1094C178.183 51.5495 178.382 51.0547 178.648 50.625C178.915 50.1888 179.254 49.8503 179.664 49.6094C180.081 49.362 180.576 49.2383 181.148 49.2383C181.279 49.2383 181.428 49.2546 181.598 49.2871C181.767 49.3132 181.884 49.3424 181.949 49.375ZM189.771 57.1973C189.771 56.9368 189.713 56.696 189.596 56.4746C189.485 56.2467 189.254 56.0417 188.902 55.8594C188.557 55.6706 188.036 55.5078 187.34 55.3711C186.754 55.2474 186.223 55.1009 185.748 54.9316C185.279 54.7624 184.879 54.5573 184.547 54.3164C184.221 54.0755 183.971 53.7923 183.795 53.4668C183.619 53.1413 183.531 52.7604 183.531 52.3242C183.531 51.9076 183.622 51.5137 183.805 51.1426C183.993 50.7715 184.257 50.4427 184.596 50.1562C184.941 49.8698 185.354 49.6452 185.836 49.4824C186.318 49.3197 186.855 49.2383 187.447 49.2383C188.294 49.2383 189.016 49.388 189.615 49.6875C190.214 49.987 190.673 50.3874 190.992 50.8887C191.311 51.3835 191.471 51.9336 191.471 52.5391H189.664C189.664 52.2461 189.576 51.9629 189.4 51.6895C189.231 51.4095 188.98 51.1784 188.648 50.9961C188.323 50.8138 187.923 50.7227 187.447 50.7227C186.946 50.7227 186.539 50.8008 186.227 50.957C185.921 51.1068 185.696 51.2988 185.553 51.5332C185.416 51.7676 185.348 52.015 185.348 52.2754C185.348 52.4707 185.38 52.6465 185.445 52.8027C185.517 52.9525 185.641 53.0924 185.816 53.2227C185.992 53.3464 186.24 53.4635 186.559 53.5742C186.878 53.6849 187.285 53.7956 187.779 53.9062C188.645 54.1016 189.358 54.3359 189.918 54.6094C190.478 54.8828 190.895 55.2181 191.168 55.6152C191.441 56.0124 191.578 56.4941 191.578 57.0605C191.578 57.5228 191.48 57.946 191.285 58.3301C191.096 58.7142 190.82 59.0462 190.455 59.3262C190.097 59.5996 189.667 59.8145 189.166 59.9707C188.671 60.1204 188.115 60.1953 187.496 60.1953C186.565 60.1953 185.777 60.0293 185.133 59.6973C184.488 59.3652 184 58.9355 183.668 58.4082C183.336 57.8809 183.17 57.3242 183.17 56.7383H184.986C185.012 57.2331 185.156 57.627 185.416 57.9199C185.676 58.2064 185.995 58.4115 186.373 58.5352C186.751 58.6523 187.125 58.7109 187.496 58.7109C187.991 58.7109 188.404 58.6458 188.736 58.5156C189.075 58.3854 189.332 58.2064 189.508 57.9785C189.684 57.7507 189.771 57.4902 189.771 57.1973Z" fill="#061826"/>
<defs>
<filter id="filter0_d_3_26" x="0.499725" y="4" width="74.0005" height="70" filterUnits="userSpaceOnUse" color-interpolation-filters="sRGB">
<feFlood flood-opacity="0" result="BackgroundImageFix"/>
<feColorMatrix in="SourceAlpha" type="matrix" values="0 0 0 0 0 0 0 0 0 0 0 0 0 0 0 0 0 0 127 0" result="hardAlpha"/>
<feOffset dy="4"/>
<feGaussianBlur stdDeviation="2"/>
<feComposite in2="hardAlpha" operator="out"/>
<feColorMatrix type="matrix" values="0 0 0 0 0 0 0 0 0 0 0 0 0 0 0 0 0 0 0.25 0"/>
<feBlend mode="normal" in2="BackgroundImageFix" result="effect1_dropShadow_3_26"/>
<feBlend mode="normal" in="SourceGraphic" in2="effect1_dropShadow_3_26" result="shape"/>
</filter>
</defs>
</svg>
