<svg width="49" height="46" viewBox="0 0 49 46" fill="none" xmlns="http://www.w3.org/2000/svg">
<path d="M32.2655 2.47048C31.81 4.19103 30.8017 5.7121 29.3974 6.79718C27.993 7.88225 26.2713 8.47053 24.5 8.47053C22.7287 8.47053 21.007 7.88225 19.6026 6.79718C18.1983 5.7121 17.19 4.19103 16.7345 2.47048M30.3821 2C30.3821 2 28.094 2.80769 24.5 2.80769C20.906 2.80769 18.6179 2 18.6179 2C18.2563 2.00001 17.8973 2.06145 17.5561 2.18173L2 7.65385L3.67042 16.5385L8.58025 17.0958C9.18151 17.1642 9.7352 17.4573 10.1314 17.9171C10.5275 18.3768 10.7372 18.9695 10.7188 19.5774L10.0357 44H38.9643L38.2813 19.5774C38.2628 18.9695 38.4725 18.3768 38.8686 17.9171C39.2648 17.4573 39.8185 17.1642 40.4198 17.0958L45.3296 16.5385L47 7.65385L31.4439 2.18173C31.1027 2.06145 30.7437 2.00001 30.3821 2Z" stroke="white" stroke-width="4" stroke-linecap="round" stroke-linejoin="round"/>
</svg>
