<svg width="45" height="48" viewBox="0 0 45 48" fill="none" xmlns="http://www.w3.org/2000/svg">
<path d="M29.3333 24.8462L19.7667 36.6923L15.6667 31.9454M12.25 15.5385V12.1538C12.25 9.46088 13.3299 6.87821 15.2522 4.97399C17.1744 3.06978 19.7815 2 22.5 2C25.2185 2 27.8256 3.06978 29.7478 4.97399C31.6701 6.87821 32.75 9.46088 32.75 12.1538V15.5385M3.70833 15.5385C3.25526 15.5385 2.82073 15.7168 2.50036 16.0341C2.17998 16.3515 2 16.7819 2 17.2308V40.0769C2 43.2754 4.75042 46 7.97917 46H37.0208C40.2496 46 43 43.4076 43 40.2091V17.2308C43 16.7819 42.82 16.3515 42.4996 16.0341C42.1793 15.7168 41.7447 15.5385 41.2917 15.5385H3.70833Z" stroke="white" stroke-width="4" stroke-linecap="round" stroke-linejoin="round"/>
</svg>
