<svg width="42" height="38" viewBox="0 0 42 38" fill="none" xmlns="http://www.w3.org/2000/svg">
<path d="M2 2H8.10678L12.6869 28.2727H37.114M12.6869 22.0909H36.4881C36.6646 22.091 36.8357 22.0292 36.9723 21.916C37.1089 21.8027 37.2025 21.6451 37.2371 21.4698L39.9852 7.56074C40.0073 7.44858 40.0046 7.33284 39.9773 7.22187C39.9499 7.11089 39.8985 7.00746 39.8268 6.91902C39.7552 6.83059 39.665 6.75936 39.5629 6.71048C39.4607 6.6616 39.3491 6.63628 39.2361 6.63636H9.63348M15.7403 34.4545C15.7403 35.3081 15.0567 36 14.2136 36C13.3704 36 12.6869 35.3081 12.6869 34.4545C12.6869 33.601 13.3704 32.9091 14.2136 32.9091C15.0567 32.9091 15.7403 33.601 15.7403 34.4545ZM37.114 34.4545C37.114 35.3081 36.4305 36 35.5873 36C34.7441 36 34.0606 35.3081 34.0606 34.4545C34.0606 33.601 34.7441 32.9091 35.5873 32.9091C36.4305 32.9091 37.114 33.601 37.114 34.4545Z" stroke="#061826" stroke-width="3" stroke-linecap="round" stroke-linejoin="round"/>
</svg>
